<svg xmlns="http://www.w3.org/2000/svg" width="1372" height="1372" xmlns:v="https://vecta.io/nano"><path d="M665.449-.203l4.607-.021 14.631-.026 2.517-.001c23.676-.007 47.218.061 70.748 2.998l6.511.773C844.835 12.913 921.862 36.234 1000 75l3.075 1.531c28.817 14.452 57.327 31.52 83.004 51.023l6.663 4.914c8.625 6.291 17.078 12.669 25.258 19.531l5.563 4.5c4.488 3.67 8.819 7.481 13.105 11.383L1143 173.5c6.73 5.874 13.425 11.749 19.625 18.188 1.361 1.428 1.361 1.428 3.375 2.313v2l1.688.688c2.974 1.688 5.033 3.779 7.313 6.313v2l3 1c1.508 1.531 1.508 1.531 3.125 3.5a133.36 133.36 0 0 0 8.375 9c4.049 4.008 7.796 8.175 11.5 12.5l3.043 3.484c6.155 7.046 12.201 14.137 17.957 21.516l3.141 3.98c12.711 16.162 24.659 32.775 35.859 50.02l1.463 2.251c47.137 72.854 80.557 154.4 106.279 297.556l.758 6.222c5.539 45.99 5.491 95.959-.247 141.923l-.773 6.511c-9.366 80.138-32.446 157.775-148.48 353.538l-2.062 2.555c-8.971 11.053-18.209 21.804-27.98 32.157-3.951 4.187-7.782 8.453-11.504 12.846C1177 1167 1177 1167 1175 1167l-1 3h-2l-1 3h-2l-1 3h-2v2c-1.469 1.445-1.469 1.445-3.5 3.125-2.967 2.518-5.776 5.097-8.5 7.875-3.175 3.218-6.462 6.224-9.891 9.168-2.286 1.985-4.506 4.032-6.734 6.082-4.529 4.092-9.251 7.864-14.072 11.599-3.741 2.904-7.387 5.888-10.99 8.963-71.589 59.973-161.398 101.895-405.762 147.391l-4.607.021-14.631.026-2.517.001c-23.676.007-47.218-.061-70.748-2.998l-6.511-.773c-80.613-9.422-158.279-32.738-273.538-92.48l-5.111-3.097-8.764-5.34-3.226-1.971c-6.462-3.987-12.719-8.182-18.899-12.591l-4.098-2.852c-9.494-6.628-18.768-13.498-27.911-20.602l-5.644-4.355c-11.501-8.886-22.398-18.453-33.156-28.219l-6.191-5.41c-4.147-3.598-7.968-7.497-11.801-11.426-2.205-2.272-2.205-2.272-5.199-4.137v-2l-1.687-.625c-2.541-1.511-4.078-3.314-5.871-5.645-1.999-2.4-4.215-4.539-6.441-6.73-6.569-6.483-13.036-12.948-19-20l-2.633-3.039c-17.888-20.653-34.762-42.104-49.941-64.834l-3.926-5.768c-8.059-11.77-15.276-24.066-22.5-36.359l-1.668-2.828c-42.019-71.55-69.589-151.655-87.074-265.98l-.758-6.222c-5.539-45.99-5.491-95.959.247-141.923l.773-6.511C12.987 526.534 36.615 448.943 73 376l1.633-3.278C85.47 351.105 97.614 330.143 111 310l2.41-3.672C126.492 286.462 140.625 267.156 156 249l1.389-1.642c6.413-7.568 12.938-15.019 19.611-22.358l12.75-14.312c2.637-3.024 5.375-5.885 8.25-8.687l1.582-1.613c2.978-3.032 6.003-5.934 9.23-8.699 3.211-2.764 6.21-5.674 9.188-8.687 4.179-4.217 8.48-8.157 13-12l3.047-2.641C299.965 111.284 375.869 67.197 458 38l3.457-1.234C526.258 13.848 596.582-.007 665.449-.203z" fill="#050505"/><path d="M333 337h92l5 13 5 12 3.453 8.273 1.864 4.467 20.609 50.095 11.782 28.381 16.66 40.475c2.05 5.503 4.358 10.896 6.633 16.309l3.629 8.695 1.947 4.668.99 2.374 1.998 4.787 9.619 23.44c1.218 3.036 2.514 6.034 3.817 9.036 3.282 7.625 6.356 15.306 9.313 23.063l4.563 11.441.971 2.322 1.918 4.526C536.04 607.387 537 609.673 537 613h236c-3.507 10.52-7.679 20.624-12 30.82-2.363 5.6-4.6 11.225-6.699 16.93-1.93 4.822-4.152 9.522-6.301 14.25l-10 23H574l8 18 3.14 7.825c1.546 3.911 3.247 7.756 4.922 11.613l11.955 28.885c2.697 6.691 5.596 13.25 8.65 19.785 1.55 3.365 2.934 6.75 4.27 10.206 3.136 7.994 6.587 15.837 10.063 23.688l9.973 23.445c1.29 3.208 2.658 6.379 4.027 9.555l4.938 11.875c2.005 5.083 4.206 10.074 6.426 15.066a297.71 297.71 0 0 1 4.531 10.801c2.32 5.843 4.804 11.611 7.293 17.383l3.168 7.375.855 1.992 10.654 24.965 2.252 5.29 10.073 24.213c1.28 3.224 2.635 6.412 3.998 9.603l1.543 3.629c1.003 2.66 1.003 2.66 2.27 3.809 2.647-4.888 4.731-9.842 6.625-15.062 3.617-9.91 7.923-19.51 12.164-29.166l15.993-38.165 9.718-23.357.914-2.178c5.65-13.4 5.65-13.4 8.461-18.635 2.286-4.501 3.961-9.223 5.703-13.953 4.198-11.357 8.88-22.476 14.02-33.438 1.809-3.931 3.474-7.913 5.116-11.916l11.411-27.256 1.422-3.36 5.951-14.052 4.377-10.338 1.333-3.145 7.64-18.215 3.825-9.099 10.372-24.868 25.67-60.792 9.612-22.709c1.602-3.836 3.274-7.629 5.009-11.406 2.808-6.144 5.426-12.365 8.026-18.599l2.543-6.082 7.955-19.112 1.327-3.202 2.39-5.792c1.991-4.809 4.077-9.556 6.275-14.275 3.527-7.582 6.809-15.261 10.086-22.953l1.962-4.592 4.067-9.523 8.777-20.496 4.698-10.959.916-2.137 5.795-13.535 16.238-37.664L954.5 381l11.74-27.514 1.758-4.078 2.447-5.661 1.422-3.291C973 338 973 338 974 337c2.861-.095 5.698-.126 8.559-.114h2.72l8.944.016 6.184.004 16.31.025 16.629.02L1066 337l-1.41 4.297-.793 2.417c-1.054 3.023-2.39 5.849-3.797 8.723-4.977 10.373-9.316 21.027-13.767 31.633l-5.917 13.804-3.129 7.719c-2.409 6.047-5.08 11.97-7.75 17.906L1012 464l-4.062 9.688-.944 2.248-9.406 21.799-6.045 14.171-8.043 18.656-1.395 3.17-8.01 17.761c-1.152 2.636-2.136 5.295-3.096 8.006-1.237 3.492-2.573 6.859-4.141 10.215-3.696 8.047-7.135 16.203-10.609 24.348l-3.078 7.206-1.9 4.451c-2.16 5.057-2.16 5.057-3.272 7.281h180v85H911l-1 5a183.78 183.78 0 0 1-2.66 6.602l-.804 1.907-2.598 6.117-1.798 4.253-3.549 8.375-4.805 11.392-11.724 27.755-7.937 18.789-.93 2.208-5.42 12.929-4.15 9.925-.844 2.018-12.534 29.25c-1.789 4.076-3.534 8.159-5.172 12.298-2.439 6.158-5.075 12.228-7.699 18.309l-12.587 29.8-9.726 22.887-13.322 32.044c-2.41 5.982-4.933 11.884-7.648 17.735-1.395 3.075-2.627 6.201-3.862 9.342L785 999.563l-1.007 2.398-6.082 13.957c-.961 2.196-1.85 4.413-2.724 6.645-2.047 5.187-4.285 10.283-6.55 15.377a301.71 301.71 0 0 0-4.591 10.951c-1.987 5.005-4.126 9.932-6.297 14.859L736 1115h-79l-8-20-3.865-8.526c-1.221-2.662-2.355-5.35-3.474-8.056l-1.324-3.194L639 1072l-2.43-5.824-2.445-5.863-1.311-3.143-5.841-14.115-.924-2.259-1.628-4.003c-1.521-3.726-3.141-7.395-4.819-11.054-2.604-5.693-5.026-11.452-7.414-17.238l-2.625-6.328-1.305-3.146-5.57-13.275-6.437-15.375-5.156-11.91c-4.88-10.997-9.568-22.091-14.008-33.273l-1.042-2.621-2.015-5.103c-2.085-5.262-4.35-10.413-6.713-15.556-2.872-6.354-5.516-12.809-8.211-19.24l-6.687-15.324c-2.399-5.232-4.516-10.548-6.605-15.91-4.653-11.784-9.615-23.426-14.625-35.062l-1.177-2.733-1.177-2.733-2.338-5.432-1.16-2.694-12.101-28.663-8.791-20.739-5.198-12.388L492.5 725l-4.137-9.773-2.82-6.641-1.387-3.273-1.256-2.949C482 700 482 700 482 698H196v-86h248c-2.298-6.985-2.298-6.985-4.867-13.832l-.987-2.461-1.021-2.519-1.07-2.654c-4.967-12.346-4.967-12.346-10.36-24.51-2.97-6.513-5.553-13.161-8.133-19.836-3.226-8.293-6.494-16.545-10.059-24.699-3.638-8.438-7.041-16.977-10.504-25.488l-4.31-10.587-2.796-6.875-6.472-15.718-5.305-13.02-6.698-16.622-1.707-4.226c-3.055-7.575-6.175-15.088-9.601-22.504-1.727-3.808-3.267-7.683-4.798-11.573l-2.062-5.191L351 384l-5.187-13.062-1.223-3.096c-2.955-7.424-6.183-14.693-9.566-21.931-1.496-3.307-2.023-5.184-2.023-8.91z" fill="#bc48f8"/><path d="M444 610l1 4c-2.829.804-5.334 1.125-8.272 1.123l-2.579.006-2.818-.009-3.005.003c-3.332.002-6.664-.004-9.996-.009-2.385 0-4.77 0-7.154 0-5.809 0-11.619-.004-17.428-.01l-20.279-.01-36.165-.018-35.131-.021-2.187-.001-10.863-.004L199 615v80l104.514.051 12.332.004 2.48.001 39.78.021 40.803.017 25.188.014 17.26.006 9.966.006 10.795.001 3.195.009 2.916-.006 2.518.001c2.21-.122 4.132-.511 6.254-1.124v2l5 1v1H196v-86h248v-2z" fill="#943cbc"/><path d="M439 598c3.294 4.942 5 7.94 5 14H196v86h286l4 9-1 2-3-2-1-8H194v-85l-1-3 5-2v2l243-1-2-5c-.076-2.332-.091-4.668 0-7z" fill="#0e001e"/><path d="M535 605l4 1 1 5 3.652-.003 85.728-.048 10.541-.004 2.12-.001 34.025-.021 34.887-.017 19.606-.012 18.431-.007 6.786-.006 9.221-.001 2.75-.009c6.139.015 6.139.015 7.254 1.129a176.79 176.79 0 0 1-1 7l-3 1 2-7H537l-2-8z" fill="#2c0741"/><path d="M950 606h1v5h175v-2l4-1 1 5h-2v85h-1v-85H948l2-7z" fill="#102"/><path d="M911 698h217v1H912v7c-1.375 2.438-1.375 2.438-3 4h-2l4-12z" fill="#130023"/><path d="M333 337h92l4 12-5 1v-10l-88-1 3 10-1 3-2.5-5.25-1.406-2.953C333 341 333 341 333 337z" fill="#8f45bb"/><path d="M742 1095l2 1-8 19h-79l-1-5h2l1 2h75l1-2h2l-.25-3.687c-.023-4.294 1.232-6.203 4.25-9.312l1-2z" fill="#a54ed1"/><path d="M974 337h92l-3 9h-1v-7h-87l-1 3h-2l2-5z" fill="#8f46ba"/><path d="M950 606h1v6h177v1H948l2-7z" fill="#50106a"/><path d="M739 689h2c-1.875 6.875-1.875 6.875-3 8l-6.346.12-2.032.003c-2.263.002-4.527-.004-6.79-.009a9231.51 9231.51 0 0 0-4.848 0c-4.401 0-8.801-.006-13.202-.013l-13.781-.008-26.116-.021-29.724-.022L574 697v-1l2.506-.013 60.314-.327 29.167-.158 25.416-.14 13.463-.072 12.664-.071 4.655-.023 6.342-.038 3.589-.02c2.954-.012 2.954-.012 5.884-1.139l1-5z" fill="#bc51ee"/><path d="M343.24 334.865l2.722.029 8.846.13 6.158.076 16.162.227 16.51.221L426 336l1.563 3.75.879 2.109c.637 2.441.361 3.781-.441 6.141-3-6.5-3-6.5-3-11h-92l4 11-1 2h-3v-8h-3v-2l-4-1c1-2 1-2 3.985-3.117 4.429-1.149 8.706-1.109 13.255-1.019z" fill="#100122"/><path d="M1062 334l4 3-92 1-8 18h-1v-5h2l.621-2.52.816-3.293.809-3.27L971 336l3.41-.031 31.742-.308 16.321-.158 15.736-.156 6.018-.056 8.398-.086 2.539-.017c3.723.306 3.723.306 6.836-1.188z" fill="#0c0020"/><path d="M617 1020c2.305 2.305 3.067 4.21 4.32 7.215l1.362 3.243 1.443 3.479 2.969 7.102 1.484 3.563 3.891 9.171 1.113 2.602 2.044 4.748c1.537 3.612 2.805 6.961 3.375 10.877h-2l-2-2-2 5h-1c-.043-2-.041-4 0-6l1-1c.671-5.235-1.053-9.046-3.125-13.73C629 1052 629 1052 629 1049l-3 1-.586-6.152L625 1042l-2-1c-.742-1.889-1.395-3.813-2-5.75-1.418-4.498-1.418-4.498-3.125-8.891C617 1024 617 1024 617 1020z" fill="#260836"/><path d="M819 916l2 3-1.375 2.563C817.971 925.06 816.97 928.27 816 932h-2l-1 8-3 1-1 7h-2l-.187 3.688c-.524 4.471-2.318 6.446-5.812 9.313 2.259-7.11 4.97-13.943 7.875-20.812l1.277-3.041 2.546-6.051L819 916z" fill="#290b37"/><path d="M1025 431c1.608 4.847-.082 8.453-2 13a106.8 106.8 0 0 1-2.187 3.563c-1.912 3.627-1.811 5.394-1.562 9.379-.593 4.887-4.902 8.711-8.25 12.059-1.146-3.437-.902-3.889.477-7.062l1.027-2.4 1.122-2.538 1.118-2.588 7.25-16.185c1.078-2.382 2.053-4.793 3.008-7.227z" fill="#1f0729"/><path d="M737 1111l.375 1.938L738 1115l2 1-5 2v-2h-78v-1h79l1-4z" fill="#210137"/><path d="M884 762c.839 3.086 1.024 5.375.625 8.563l-.273 2.316C884 775 884 775 883 778v-2h-2l-1 4h-2v10h-3v3h-2v3h-2c.414-5.105 2.305-9.076 4.457-13.633 1.898-4.141 3.632-8.339 5.355-12.555l.952-2.325L884 762z" fill="#23092f"/><path d="M822 905h2c-2.51 8.094-5.816 15.8-9.187 23.563l-1.693 3.924L809 942c-2-3-2-3-2-5h2l-1-4 3-1c1.812-4.227 2.454-8.453 3-13l3-1c.613-1.825.613-1.825 1-4 .658-1.596 1.346-3.179 2.063-4.75l1.098-2.422L822 905z" fill="#ae4fe5"/><path d="M602 766c3.213 4.82 5.333 10.157 7.688 15.438l1.588 3.471 1.486 3.338 1.374 3.052c.899 2.809.919 3.998-.135 6.701-3.025-1.008-4.133-1.501-6-4-.074-2.262-.074-2.262.313-4.687l.363-2.449L609 785h-3l-.312-2.5c-.549-2.796-1.202-4.957-2.25-7.562-1.229-3.108-1.755-5.554-1.437-8.937z" fill="#ab4add"/><path d="M509 764c2.983 2.983 4.103 6.634 5.688 10.5l1.01 2.379.939 2.277.866 2.088C518 783 518 783 517 785l-2 1v-2h-2l-2 5h-4l.938-1.75c.992-2.1 1.537-4 2.063-6.25l1-2c.069-1.373.085-2.75.063-4.125L511 771h-2v-7z" fill="#040409"/><path d="M1005 476c1 2 1 2 .458 3.797l-.935 2.168-1.027 2.409-1.122 2.564-1.12 2.609-7.224 16.141c-1.509 3.383-2.781 6.826-4.031 10.313h-1c.647-6.95 2.86-13.382 5-20h3l.375-3.312C998 489 998 489 1000 486c.305-1.987.305-1.987.375-4.062.625-3.937.625-3.937 2.688-5.437l1.938-.5z" fill="#a54fd0"/><path d="M861 600l1 2h2c-.557 3.344-1.352 6.033-3 9h-2v9l-4 1-3 1c2.339-7.668 5.548-14.771 9-22z" fill="#ad48db"/><path d="M625 820c2.713 2.713 3.555 5.895 4.813 9.438 2.175 6.005 4.57 11.79 7.402 17.523L638 849l-1 2-3-1c-.964-3.072-1.531-6.155-2.156-9.312L631 838l-3-1-.375-3.687c-.414-3.401-1.305-6.145-2.625-9.312v-4z" fill="#9f49cd"/><path d="M1036 406c.796 2.915 1.253 5.746 1.563 8.75l.254 2.422L1038 419h-3l-1-2v5l-2 1-2 4-2-1c2.162-6.94 4.894-13.431 8-20zm2 4h2v4l-3-1 1-3z" fill="#0b0515"/><path d="M689 970h2l1 5 4-1 .375 2.938L697 980l2 1v-4h3c-1.45 3.791-3.152 7.387-5 11-2.617-2.617-3.716-5.643-5.125-9l-.84-1.945C689 972.263 689 972.263 689 970z" fill="#20022b"/><path d="M543 843l3 1 1 6h2v4l3 1c1.203 3.02 1.203 3.02 2.25 6.813l1.078 3.77c.604 3.074.793 4.565-.328 7.418-3.233-6.763-6.098-13.641-8.812-20.625l-.951-2.443C543 844.133 543 844.133 543 843z" fill="#a74ed4"/><path d="M777 793h2a41.12 41.12 0 0 1-2.961 9.836l-1.18 2.727-1.234 2.813-1.211 2.789-2.339 5.37L766 826c-1.784-4.637.257-8.208 2.063-12.562.95-2.471 1.491-4.833 1.938-7.437h3l.313-2.562c.77-3.852 2.05-6.878 3.688-10.437z" fill="#1c0428"/><path d="M493 726c5.12 5.12 7.264 14.057 9 21h-3l-1.437-1.937c-1.787-2.359-2.699-2.668-5.562-3.062l.938-1.625c1.241-2.773 1.653-5.375 2.063-8.375l-3-1 1-5z" fill="#1c0724"/><path d="M577 707c2.659 3.183 4.022 6.302 5.438 10.188 1.783 4.798 3.689 9.472 5.863 14.105C589 733 589 733 589 735h-2v-2h-3l-1 4c-1.115-2.974-.913-4.469-.312-7.687.773-5.178-1.349-8.809-3.687-13.312-1.586-3.567-2-4.979-2-9z" fill="#a24bd5"/><path d="M906 707l2 1-12 28h-1l1-7h-2c1-2 1-2 3.375-5.187 2.468-3.418 4.056-6.89 5.625-10.812l3-6z" fill="#ac4edf"/><path d="M503 529c2.143 3.214 3.621 6.526 5.125 10.063l.84 1.932C511 545.751 511 545.751 511 548h-3l-2 3-2-1c-.369-5.538-.369-5.538 1.5-7.875L507 541l-3-1-1-11z" fill="#b248e8"/><path d="M380 456c2.263 2.066 3.562 3.829 4.719 6.66l.883 2.143.899 2.26.932 2.301c2.179 5.457 4.099 10.943 5.568 16.637l-2 1-2-10-3-1c-1.062-2.687-1.062-2.687-2-6l-1.125-3.125C382 464 382 464 382 460h-2v-4z" fill="#2b0a3b"/><path d="M456 415c2.466 3.699 3.947 7.541 5.621 11.648l2.852 6.703 1.402 3.211 1.305 2.941C468 442 468 442 467 445c-3.311-2.632-3.961-5.572-5.062-9.562-1.156-4.686-1.156-4.686-3.937-8.437-1.695-4.144-2.213-7.536-2-12z" fill="#9c4cc8"/><path d="M644 1084c5.279 6.449 7.997 14.989 10 23l-2 1v-2h-2l-.586-2.117-.789-2.758-.773-2.742c-.712-2.529-.712-2.529-2.852-4.383-.414-2.383-.414-2.383-.625-5.125l-.227-2.758L644 1084z" fill="#240833"/><path d="M852 831h3c-1.703 6.382-3.914 12.264-6.727 18.238-1.93 4.186-3.606 8.466-5.273 12.762h-1l1-8h2v-5h2l.375-2.812C848 843 848 843 850 840c.167-3.125.167-3.125 0-6h2v-3z" fill="#ab4ed9"/><path d="M971 558h1c.234 6.789-.142 11.873-4.5 17.375L965 578h-2c2.162-6.94 4.894-13.431 8-20z" fill="#1c0426"/><path d="M1003 483c2.052 6.042-.823 12.37-3.316 17.941-1.187 2.378-2.405 4.729-3.684 7.059-2.112-3.429-2.112-3.429-1.616-5.951l.882-2.018.949-2.23 1.035-2.301.988-2.301c1.493-3.452 3.062-6.844 4.762-10.199z" fill="#1d052a"/><path d="M393 486c2.461 2.461 3.303 4.785 4.625 8l1.352 3.25C400 500 400 500 400 502h-2l-1-2-3 3-2-1 1-16z" fill="#1a0721"/><path d="M764 1048h1c-1.115 9.104-3.195 14.972-9 22-1-2-1-2-.395-3.955l1.012-2.361 1.09-2.564 1.168-2.682 1.145-2.693c2.824-6.588 2.824-6.588 3.98-7.744z" fill="#260938"/><path d="M843 860h1c-.447 7.662-1.014 14.559-7 20l-1 3h-2c2.458-7.919 5.668-15.42 9-23z" fill="#1e062c"/><path d="M1051 371h1v8h-2v5l-2 1-3 6-3 5-1-2 2.09-5.227 1.377-3.125 1.471-3.273 1.459-3.297L1051 371z" fill="#250835"/><path d="M880 769l2 1-4.875 11.313-1.395 3.248-1.348 3.115-1.238 2.872C872 793 872 793 870 796c.549-4.571 1.417-8.674 3-13h2v-5h2l-1-6 4-3z" fill="#a651da"/><path d="M632 833l2 1 1 3 5 1-1 4h-2l2 6h2l-1 6c-2.029-3.044-3.559-6.07-5.125-9.375l-1.633-3.398c-1.178-3.059-1.52-5-1.242-8.227z" fill="#0f0218"/><path d="M872 569h2c-2.458 7.919-5.668 15.42-9 23-.936-3.155-1.106-5.966-1.062-9.25l.027-2.703L864 578h3l2-3h2l1-6z" fill="#150421"/><path d="M702 977l6 1-1 5h-5l-1.25 2.938C699 989 699 989 696.813 989.875L695 990l1-4 1 1 5-10z" fill="#ba4af4"/><path d="M631 1056c4.59 3.606 6.235 8.611 8 14v2h-2l-2-2-2 5h-1c-.043-2-.041-4 0-6l1-1c.311-4.461-.414-7.837-2-12z" fill="#110219"/><path d="M852 838h1v8l-3 1v7l-3 1c-.733 2.015-.733 2.015-1 4h-2c2.274-7.182 5.036-14.076 8-21z" fill="#200931"/><path d="M540 837c3.297 3.297 4.482 7.714 6.188 12l1.154 2.813 1.076 2.688.993 2.469C550 859 550 859 549 861c-3.248-2.165-3.46-2.553-4.5-6.062l-.738-2.422L543 850l-2.449-6.957C540 841 540 841 540 837z" fill="#27083a"/><path d="M793 760h1c-.034 7.977-2.155 13.639-7 20l-2 1c2.274-7.182 5.036-14.076 8-21z" fill="#9e4aca"/><path d="M906 494h1l-.312 5.25-.176 2.953c-.563 3.075-1.355 4.56-3.512 6.797h-2v5l-3 1c2.274-7.182 5.036-14.076 8-21z" fill="#a94ad8"/><path d="M913 473h2c-2.458 7.919-5.668 15.42-9 23h-1v-5h2v-5h2l-.75-3.25c-.25-3.75-.25-3.75 1.625-6.062L912 475l1-2z" fill="#150323"/><path d="M754 1070c1.563 1.25 1.563 1.25 3 3-.312 2.125-.312 2.125-1 4v1c-.387 2.904-.778 3.811-3.062 5.75L751 1085l-2-1c1.543-4.721 3.078-9.417 5-14z" fill="#0f0718"/><path d="M858 813l2 2-1 2h2l-1.312 4.75-.738 2.672c-.97 2.636-2.159 4.432-3.949 6.578-.365-6.573.864-11.795 3-18z" fill="#b34ae5"/><path d="M656 894c2.972 2.972 4.102 6.589 5.688 10.438l1.01 2.354.939 2.268.866 2.072C665 913 665 913 664 916l-.84-1.738c-1.121-2.256-1.121-2.256-2.414-4.305-3.32-5.441-4.443-9.592-4.746-15.957z" fill="#a14cd0"/><path d="M654 885l4 1 .375 1.938L659 890l2 1h-2l1 10c-2.32-2.32-3.31-4.465-4.687-7.437l-1.387-2.934C653 888 653 888 654 885z" fill="#160521"/><path d="M514 774h2c3 6.625 3 6.625 3 10h2c2.187 3.281 2.544 5.331 3.125 9.188l.508 3.293L525 799c-2.164-2.712-3.703-5.28-5.043-8.477l-1.064-2.531-1.08-2.617-1.115-2.641C514 776.269 514 776.269 514 774z" fill="#ab51d9"/><path d="M809 722c2.429 3.644 2.162 5.712 2 10h-2l-1.437 2.438C806 737 806 737 803 738l.867-2.137c1.138-2.875 2.207-5.768 3.258-8.676l1.07-2.957L809 722z" fill="#a84cdb"/><path d="M424 561c2.12 3.18 3.619 6.446 5.125 9.938l.84 1.881c1.454 3.363 2.035 5.447 2.035 9.182h-4l.188-3.25c.174-3.655.174-3.655-1.656-5.656-1.864-2.549-2.013-4.221-2.219-7.344l-.199-2.703L424 561z" fill="#260a37"/><path d="M645 1084h2l2.91 6.547 2.023 4.469c1.511 3.326 2.066 5.243 2.066 8.984h2v6c-5.241-7.862-8.654-16.883-11-26z" fill="#a850d4"/><path d="M719 936l2 3-1.437 2.125c-1.651 3.037-2.025 5.496-2.562 8.875l-2 1-.937 3-1.062 3-3 1c1.903-7.785 5.394-14.872 9-22z" fill="#a14cd2"/><path d="M746 872h2l-2 10h-2v2l3-1-1 3h-5c.535-5.348 2.467-9.358 5-14z" fill="#a64adc"/><path d="M943 408l3 3-1 3-2-1v3h-2l-.437 3.875c-.269 2.382-.485 3.97-1.562 6.125h-3c1.936-6.205 4.256-12.108 7-18z" fill="#9c47cc"/><path d="M501 742c2 1 2 1 2.633 2.848l.492 2.215.508 2.223L505 751h3l1 10h2v5c-2.561-3.114-4.061-6.205-5.562-9.937l-1.254-3.09L503 750l-1.152-2.691C501 745 501 745 501 742z" fill="#a64dd3"/><path d="M808 726c-1.355 5.421-3.366 10.078-6 15h-1c-.098-4.785.229-9.277 1-14 3-1 3-1 6-1z" fill="#1e0525"/><path d="M439 374c1.871 2.806 3.23 5.5 4.625 8.563l1.352 2.941C446 388 446 388 446 390h-4c-2-2-2-2-2.125-5.625L440 381l-2-1 1-6z" fill="#a546d3"/><path d="M638 851c3.889 5.833 6.273 12.234 8 19h-4l1-6h-2v-4l-4-2 1-7z" fill="#a649d4"/><path d="M400 503c1.751 2.626 2.693 4.618 3.688 7.563l.824 2.379C405 515 405 515 404 517c-1.937.75-1.937.75-4 1l-2-2 .992-1.703c1.126-2.565 1.215-4.265 1.133-7.047l-.055-2.422L400 503z" fill="#170721"/><path d="M619 1012l3 3-1 2c-.762 1.882-.762 1.882-1 4l2 4v5c-1.858-2.787-3.229-5.463-4.625-8.5l-1.352-2.906C615 1016 615 1016 615 1013l4 1v-2z" fill="#a84bd8"/><path d="M913 478h1l1 9-4-1 1 6-5 2c1.564-5.614 3.164-10.868 6-16z" fill="#a549d0"/><path d="M475 461c2.235 2.235 3.002 4.024 4.188 6.938l1.105 2.652C481 473 481 473 480 476l-1-4h-2v-3l-5 1 1-5h2v-4z" fill="#9f44cd"/><path d="M937 417h2c-2.458 7.919-5.668 15.42-9 23-2.106-6.318 2.323-13.269 5-19h2v-4z" fill="#190224"/><path d="M601 982c2.461 2.461 3.303 4.785 4.625 8l1.352 3.25C608 996 608 996 608 998h-2v-3h-2l-1 3h-2v-2h2v-8l-3 1 1-7z" fill="#1d0524"/><path d="M734 899h1v9l-3 1c-1.023 2.097-1.023 2.097-1.687 4.563l-.762 2.504L729 918h-2c1.822-6.612 4.052-12.805 7-19z" fill="#9946c5"/><path d="M404 511h2l2.84 7.121 2.352 5.664 1.121 2.652 1.051 2.434C414 531 414 531 413 534c-9-17-9-17-9-23z" fill="#aa50d8"/><path d="M755 1068l-1.375 4.313-.773 2.426C752 1077 752 1077 750 1080l-1.187-4.312-.668-2.426c-.145-2.262-.145-2.262 1.055-4.055C751 1068 751 1068 755 1068z" fill="#b44ce6"/><path d="M588 950l3 1v4h2l2.563 6.25 1.441 3.516c.954 3.097 1.206 4.308-.004 7.234-9-17.336-9-17.336-9-22z" fill="#a14dd5"/><path d="M664 911h5v9h2v7c-1.871-2.806-3.23-5.5-4.625-8.562l-1.352-2.941C664 913 664 913 664 911z" fill="#150320"/><path d="M829 892c1.603 5.642-.3 10.916-3.094 15.984-.917 1.375-1.904 2.702-2.906 4.016-1-2-1-2-.471-3.879l.905-2.253.967-2.441 1.037-2.551 1.025-2.574L829 892z" fill="#2a0937"/><path d="M602 766c2.054 3.081 3.602 6.156 5.188 9.5l1.668 3.469C610 782 610 782 609 785h-3l-.312-2.5c-.549-2.796-1.202-4.957-2.25-7.562-1.229-3.108-1.755-5.554-1.437-8.937z" fill="#a149cc"/><path d="M742 1095l2 1-7 17c-1.097-3.29-.906-4.661-.25-8l.484-2.625c.837-2.596 1.755-3.597 3.766-5.375l1-2z" fill="#aa50d8"/><path d="M561 887c1.676 2.514 2.94 4.829 4.188 7.563l1.105 2.379L567 899l-1 2-2-1v2h-2l-1-15z" fill="#1d0726"/><path d="M859 822h1c-.59 5.508-1.567 10.649-3 16h-3l-1-2c.908-2.436 1.868-4.762 2.938-7.125l.881-1.996L859 822z" fill="#21072e"/><path d="M823 688c1.603 5.642-.3 10.916-3.094 15.984-.917 1.375-1.904 2.702-2.906 4.016-1-2-1-2-.471-3.879l.905-2.253.967-2.441 1.037-2.551 1.025-2.574L823 688z" fill="#9945c3"/><path d="M529 593c2.728 2.728 3.746 5.97 5.125 9.5l.84 2.09C537 609.733 537 609.733 537 612l-3-1-1-7h-2c-1.193-3.877-2-6.916-2-11z" fill="#a850d4"/><path d="M971 336h3c-2.162 6.94-4.894 13.431-8 20h-1v-5h2l.621-2.52.816-3.293.809-3.27c.515-1.992 1.103-3.966 1.754-5.918z" fill="#1a032a"/><path d="M677 941h2c3.288 4.289 5.005 9.727 6 15-.294 1.342-.623 2.678-1 4l-3.5-8.375-1.012-2.406-.957-2.305-.889-2.126C677 943 677 943 677 941z" fill="#1a0225"/><path d="M719 934c0 3.676-1.059 6.195-2.375 9.625l-1.336 3.539C714 950 714 950 712 951l-1-7 2-1 2 1v-5h2v-4l2-1z" fill="#200526"/><path d="M819 916l2 3-1.375 2.563C817.971 925.06 816.97 928.27 816 932h-2v2h-2c1.355-4.218 2.902-8.294 4.625-12.375l1.352-3.211L819 916z" fill="#2e0d3e"/><path d="M958 588c1.423 3.801.561 6.348-.687 10.125l-1.012 3.195C955 604 955 604 952.855 605.367L951 606c1.936-6.205 4.256-12.108 7-18z" fill="#260838"/><path d="M979 539c1.455 4.472-.039 6.787-2 11l-1 3.313C975 556 975 556 972 558c.666-4.41 2.266-8.266 4.063-12.312l.854-1.955L979 539z" fill="#2d0c3f"/><path d="M439 598c3.072 4.608 5.501 8.321 5 14l-6-1 3-1-1-2.062c-1.173-3.446-1.142-6.321-1-9.937z" fill="#200629"/><path d="M615 795h2l.805 2.082 1.07 2.73 1.055 2.707c1.059 2.658 1.059 2.658 3.07 5.48.539 2.66.734 5.293 1 8-2.7-2.7-3.702-5.88-5.062-9.375l-.814-2.039c-1.246-3.158-2.432-6.257-3.123-9.586z" fill="#250732"/><path d="M770 620h1l.625 4.875.352 2.742L772 630l-2 2-1-2-2 4h-2c1.3-4.899 2.924-9.376 5-14z" fill="#1d0729"/><path d="M437 592h2l1 2h2l-.25 2.5c.285 3.987 1.457 6.329 3.375 9.766C446 608 446 608 446 610h-2l-3.5-8.437-1.012-2.432-.957-2.314-.889-2.142C437 593 437 593 437 592z" fill="#a94eda"/><path d="M980 534c1.392 4.176-.046 5.79-1.937 9.688l-1.715 3.574L975 550h-1c.52-4.379 1.057-8.688 2-13h3l1-3z" fill="#af4fe2"/><path d="M468 442h2l1 6h2l2.063 5.813 1.16 3.27C477 460 477 460 476 463l-4-9.375-1.156-2.695-1.094-2.578-1.016-2.38C468 444 468 444 468 442z" fill="#160023"/><path d="M372 433l3 1c1.188 2.563 1.188 2.563 2 5h3c-.629 2.937-1.624 5.338-3 8l-2.5-5.875-1.406-3.305C372 435 372 435 372 433z" fill="#b14de4"/><path d="M773 1025h1l-.375 4.875-.211 2.742C773 1035 773 1035 771 1037l-.437 2.063L770 1041l-3 1a365.55 365.55 0 0 1 6-17z" fill="#220531"/><path d="M726 918h1c.688 2.813.688 2.813 1 6l-3 3c.23 2.655.23 2.655 1 5l-3-1v2l-3 1c1.721-5.449 3.847-10.712 6-16z" fill="#a448d7"/><path d="M764 828c1.137 3.404.84 5.775.063 9.25l-.59 2.703L763 842h-2v2l-3 1a365.55 365.55 0 0 1 6-17z" fill="#9d4bc8"/><path d="M837 652c1.137 3.41.916 3.863-.434 7.012l-.967 2.295-1.037 2.381-1.025 2.416L831 672c-1.352-4.335-.262-6.876 1.313-11.125l1.363-3.758C835 654 835 654 837 652z" fill="#1b0226"/><path d="M391 479h2l.813 2.938L395 485l3 1v10c-2.58-2.58-3.336-5.093-4.625-8.5l-1.352-3.531C391 481 391 481 391 479z" fill="#a94fdd"/><path d="M1042 384h3c-.535 5.348-2.467 9.358-5 14h-1c.514-4.969 1.234-9.29 3-14z" fill="#ac4fdd"/><path d="M746 1089c2 3 2 3 1.758 5.043L746 1100h-3l-1 5h-2c1.748-5.467 3.658-10.758 6-16z" fill="#27083a"/><path d="M893 742h1c.315 4.619-.121 6.456-3 10a100.38 100.38 0 0 0-2 6h-2c1.564-5.614 3.164-10.868 6-16z" fill="#280834"/><path d="M861 600l1 2h2c-.557 3.344-1.352 6.033-3 9-2-2-2-2-2.012-3.91.901-5.979.901-5.979 2.012-7.09z" fill="#b54ae6"/><path d="M922 456l2 3-1 1c-.146 3.366-.072 5.784 1 9l-3 1-3-2 4-12z" fill="#a448d7"/><path d="M1025 431c1.595 4.817.103 8.541-2 13-1.54 1.983-3.061 3.376-5 5 1.355-4.218 2.902-8.294 4.625-12.375l1.352-3.211L1025 431z" fill="#2b0a3d"/><path d="M651 882c2.349 2.349 2.731 3.957 3.625 7.125l.789 2.758L656 894l-5-1v-11z" fill="#ab4adb"/><path d="M956 365h2v3h2c-1.543 4.721-3.078 9.417-5 14-.981-3.053-.981-4.947 0-8h2l-1-9z" fill="#12011e"/><path d="M629 1046h2v2h2v-2h2l-.562 3.625c-.469 3.658-.252 6.754.563 10.375-2.256-2.256-2.966-4.046-4.125-7l-1.07-2.687C629 1048 629 1048 629 1046z" fill="#ae4fde"/><path d="M793 978c1.429 2.354 2.087 3.48 1.625 6.25L794 986h-2l-.312 1.875C791 990 791 990 788 992c1.3-4.899 2.924-9.376 5-14z" fill="#240730"/><path d="M594 965c2.58 2.58 3.336 5.093 4.625 8.5l1.352 3.531C601 980 601 980 601 982h-2v-4h-2c-2.379-4.759-3.101-7.548-3-13z" fill="#270836"/><path d="M584 942c3.402 4.05 6 8.636 6 14l-4 2 .195-5.957c-.063-2.357-.063-2.357-2.195-5.043-.125-2.687-.125-2.687 0-5z" fill="#1f0625"/><path d="M727 911h2c-1.662 5.857-3.47 11.459-6 17-1.097-3.29-.8-4.713 0-8h2l.438-3.937c.438-3.937.438-3.937 1.563-5.062z" fill="#1c042a"/><path d="M899 727h1l-1 11h-2v2l-3 1c1.543-4.721 3.078-9.417 5-14z" fill="#220931"/><path d="M834 662l2 3c-.461 2.262-.461 2.262-1.375 4.688l-.898 2.449L833 674h-2v2h-2c1.543-4.721 3.078-9.417 5-14z" fill="#a04ad8"/><path d="M1033 413c.911 3.073 1.089 5.801 1 9l-2 1-2 4-2-1 1.375-4.25.773-2.391c.803-2.226 1.749-4.269 2.852-6.359z" fill="#22072c"/><path d="M944 390l4 1h3l-4 10h-1l-2-11z" fill="#14031d"/><path d="M572 913c2.122 2.122 2.93 3.773 4.125 6.5l1.07 2.406C578 924 578 924 578 926h-2v-2h-3l-1-11z" fill="#290b37"/><path d="M453 406h5l-.062 3.625c-.006 3.555.364 6.881 1.063 10.375-2.256-2.256-2.966-4.046-4.125-7l-1.07-2.687C453 408 453 408 453 406z" fill="#15021f"/><path d="M694 974h2l.375 2.938L697 980l2 1v-4h3l-2 5h-3l-1 2-3-9 1-1z" fill="#140619"/><path d="M798 961h2c-.654 5.07-2.855 9.42-5 14h-1c-.125-2.875-.125-2.875 0-6l2-2c.714-1.984 1.386-3.983 2-6z" fill="#ac4ddc"/><path d="M534 823c2.256 2.256 2.966 4.046 4.125 7l1.07 2.688C540 835 540 835 540 837h-2l-1-3-2 1-1-12z" fill="#220833"/><path d="M771 812c1.602 4.004.409 7.07-1 11l-2 1c-.656 2.527-.656 2.527-1 5l-2-1c1.748-5.467 3.658-10.758 6-16z" fill="#9d46c7"/><path d="M893 524c.998 3.106 1 4.908 0 8l-.812 3.125c-1.362 3.296-2.054 3.54-5.187 4.875 1.748-5.467 3.658-10.758 6-16z" fill="#9745c7"/><path d="M1065 339c1.321 3.964.616 6.417-.875 10.25C1063 351 1063 351 1060 352l1.375-4.812.773-2.707C1063 342 1063 342 1065 339z" fill="#250732"/><path d="M526 804c2.256 2.256 2.966 4.046 4.125 7l1.07 2.688C532 816 532 816 532 818h-3l-1.5-4.75-.844-2.672C526 808 526 808 526 804z" fill="#270835"/><path d="M742 686h1c.286 8.571.286 8.571-2 12h-3l4-12z" fill="#240937"/><path d="M503 529c1.794 2.691 2.973 5.086 4.188 8.063l1.105 2.66C509 542 509 542 508 544l-1-3-3-1-1-11z" fill="#9f4cd2"/><path d="M380 456c2.745 2.383 3.891 4.689 5.188 8.063l1.043 2.66C387 469 387 469 387 471l-3-1c-1.522-3.604-2-6.052-2-10h-2v-4z" fill="#240731"/><path d="M352 386c2.256 2.256 2.966 4.046 4.125 7l1.07 2.688C358 398 358 398 358 400h-2c-2.796-2.955-3.424-5.245-3.687-9.25l-.199-2.703L352 386z" fill="#2e0c40"/><path d="M337 350c2.256 2.256 2.966 4.046 4.125 7l1.07 2.688C343 362 343 362 343 364h-2v-4l-3 1c-.693-3.724-1.111-7.211-1-11z" fill="#240933"/><path d="M520 790c2.25 2.25 3.005 4.063 4.188 7l1.105 2.688C526 802 526 802 525 804c-3.916-2.611-4.006-4.491-5-9-.125-2.937-.125-2.937 0-5z" fill="#280938"/><path d="M513 774c2.961 3.364 3.923 6.692 5 11l-3 1c-1.591-4.177-2.213-7.532-2-12z" fill="#23072e"/><path d="M880 769l2 1-5 10h-2v-2h2l-1-6 4-3z" fill="#af4de8"/><path d="M819 694l2 1-6 15h-1v-5h2l.375-3.812c.324-3.291.691-4.287 2.625-7.187z" fill="#1b0223"/><path d="M760 644c2 3 2 3 2 6h-2l-.312 1.875C759 654 759 654 756 656l1.438-4.875.809-2.742C759 646 759 646 760 644z" fill="#21072d"/><path d="M859 598h3c-1.599 5.196-3.741 10.066-6 15h-1c-.082-3.044.024-5.072 1-8h2l1-7z" fill="#220632"/><path d="M428 569c3 1 3 1 3.949 2.672 1.382 3.891 2.444 7.13 2.051 11.328-2.926-1.463-3.059-3.403-4.125-6.437l-1.07-2.996C428 571 428 571 428 569z" fill="#aa4dd6"/><path d="M1012 460l1 2-2.437 6.125-1.434 3.32L1008 474c-.951-3.029-1.022-5.05-.25-8.125l.484-2.07C1009 462 1009 462 1012 460z" fill="#a64dd5"/><path d="M333 338h2c2.757 4.795 3.533 8.586 4 14-3.402-4.05-6-8.636-6-14z" fill="#a54fcf"/><path d="M608 998c2.349 2.349 2.731 3.957 3.625 7.125l.789 2.758L613 1010c-3-1-3-1-5-4-1.431-2.862-.6-4.934 0-8z" fill="#270a37"/><path d="M800 961c1.144 3.963.974 6.956 0 11-2.062 1.438-2.062 1.438-4 2 .72-4.609 2.313-8.672 4-13z" fill="#260931"/><path d="M709 958h1l-.437 4.25-.246 2.391c-.293 2.183-.737 4.237-1.316 6.359l-3-1 4-12z" fill="#9f48cf"/><path d="M806 949c1.274 3.01.997 4.008-.25 7.125C804 959 804 959 801 961l1.375-4.312.773-2.426C804 952 804 952 806 949z" fill="#23072f"/><path d="M588 731h2l1 4 3-1-1 8c-2.961-3.364-3.923-6.692-5-11z" fill="#16021a"/><path d="M476 698h6l2.063 4.375 1.16 2.461L486 707l-1 2c-3-2-3-2-3.512-3.945L481 699h-5v-1z" fill="#230631"/><path d="M762 631l3 1-2 8h-2l-1-7 2-2z" fill="#b649e9"/><path d="M497 515c2.472 2.963 3.662 5.54 4.688 9.25l.762 2.703L503 529c-2.733-2.172-4.729-3.858-5.555-7.336-.232-2.227-.392-4.426-.445-6.664z" fill="#9647c2"/><path d="M901 501h2l-3 9c-2.154-2.622-3.401-4.644-4-8l4 1 1-2z" fill="#15031d"/><path d="M649 1099l3 1 2 7-2 1v-2h-2l-1-7z" fill="#1c0728"/><path d="M792 986h3c-1.53 3.442-3.627 6.092-6 9l-1 2h-2c.496-4.591.496-4.591 3-6.625l2-1.375 1-3z" fill="#120318"/><path d="M822 905h2c-2.891 9.595-2.891 9.595-6 13 .497-4.973 1.553-8.638 4-13z" fill="#a551d2"/><path d="M564 892h2l.875 2.438c.858 2.695.858 2.695 3.125 3.563l-1 6c-2.349-2.349-2.731-3.957-3.625-7.125l-.789-2.758L564 892z" fill="#a850d9"/><path d="M784 781l3 1-1 8-4-2 2-7z" fill="#a746dc"/><path d="M591 740c3.338 3.641 3.979 7.286 5 12l-2 1-1-5h-2v-8z" fill="#9948c4"/><path d="M860 591l4 1-2 6h-4l2-7z" fill="#0b0216"/><path d="M1005 476c1 2 1 2 .441 3.945l-.879 2.18-.871 2.195L1003 486h-2v-8l4-2z" fill="#b04bda"/><path d="M463 434c2.912 3.288 4.497 5.599 5 10h-3c-1.316-3.62-2-6.096-2-10z" fill="#a24dd2"/><path d="M1059 352h1c.122 4.255-.072 8.145-2 12h-3c.665-4.389 2.188-7.981 4-12z" fill="#260836"/><path d="M960 357l4 1c-.525 4.617-1.075 6.1-4 10v-11z" fill="#130420"/><path d="M682 955c4.133 6.2 4.133 6.2 3.625 9.25L685 966l-4-1 2-1-1-9z" fill="#a349d1"/><path d="M740 880h2c-.479 4.219-1.166 6.797-4 10-.8-3.287-1.097-4.71 0-8h2v-2z" fill="#170526"/><path d="M865 808l4 5-2 4v-4h-3v3h-2l3-8z" fill="#1e0929"/><path d="M486 710c2.961 3.364 3.923 6.692 5 11-2.5-1-2.5-1-5-3-.468-2.794-.234-5.142 0-8z" fill="#260832"/><path d="M527 585h2c3.429 8.429 3.429 8.429 3 13-2.944-4.416-5-7.611-5-13z" fill="#260638"/><path d="M969 347h1l1 11h-2c-2-2-2-2-3-4l3-7z" fill="#a84adb"/><path d="M778 1014h1c.176 3.875.283 6.755-2 10l-3 1 1.438-4.937.809-2.777C777 1015 777 1015 778 1014z" fill="#260734"/><path d="M869 580l2 3-1 2-1 5-3-1 3-9z" fill="#a547d2"/><path d="M880 555h1v7l-3 1-1 3-1-2c.777-2.164.777-2.164 1.938-4.625l1.152-2.477L880 555z" fill="#a447ce"/><path d="M451 403c1.956 2.934 3.562 5.782 5 9l-1 2-2-1v-3h-2c-.934-3.01-1.044-3.867 0-7z" fill="#9b47c8"/><path d="M754 1070l3 3c-.312 2.188-.312 2.188-1 4h-3v2h-2l3-9z" fill="#1f092a"/><path d="M635 1062c2.952 2.952 3.087 5.955 4 10h-2c-2-2-2-2-3-4 .281-2.008.611-4.01 1-6z" fill="#230a32"/><path d="M764 1048h1c-.549 4.571-1.417 8.674-3 13-1.351-2.701-.74-4.136-.125-7.062l.555-2.723C763 1049 763 1049 764 1048z" fill="#190620"/><path d="M700 980h1l-1 8-5 2 1-4 1 1 3-7z" fill="#9e47c9"/><path d="M809 932h2c-.75 7.75-.75 7.75-3 10l-1-5h2l-.562-1.937L808 933l1-1z" fill="#b74beb"/><path d="M834 870l1 2h2v-2l2 1-3 8h-1l-1.062-3.937-.598-2.215L833 871l1-1z" fill="#ac4cdc"/><path d="M597 754c2.349 2.349 2.731 3.957 3.625 7.125l.789 2.758L602 766c-3.829-2.367-3.829-2.367-4.609-5.262l-.141-2.426-.172-2.449L597 754z" fill="#9a47c1"/><path d="M584 721c3 1 3 1 4.25 2.75.926 2.777.523 4.466-.25 7.25-4-6-4-6-4-10z" fill="#190322"/><path d="M435 588c2.952 2.952 3.087 5.955 4 10h-2v-2l-3-1 1-7z" fill="#260935"/><path d="M971 558h1v8l-2 2h-3c1.109-3.487 2.263-6.775 4-10z" fill="#230b2e"/><path d="M464 432h4v10c-4-6-4-6-4-10z" fill="#18062a"/><path d="M425 342h2l2 7-5 1 1-8z" fill="#ab49d9"/><path d="M676 941c2.686 2.686 3.06 5.376 4 9h-2v-2h-3l1-7z" fill="#a148c7"/><path d="M802 739c1.089 2.831.961 4.165.25 7.188L801 749l-3 1 1.438-4.375.809-2.461C801 741 801 741 802 739z" fill="#9c49c5"/><path d="M482 695l2 1v2l2 2v7c-2-1-2-1-3.125-3.75-.795-2.952-1.053-5.222-.875-8.25z" fill="#a84bd5"/><path d="M865 590h1l1 7-5 1 3-8z" fill="#a547d0"/><path d="M407 520c2.349 2.349 2.731 3.957 3.625 7.125l.789 2.758L412 532h-2l-1.5-3.75-.844-2.109C407 524 407 524 407 520z" fill="#2c0a3c"/><path d="M363 412c3 1 3 1 3.984 2.961l.766 2.414.797 2.398C369 422 369 422 368 425l-2.5-5.375-1.406-3.023C363 414 363 414 363 412z" fill="#a74ed4"/><path d="M720 928h2c-.812 2.938-.812 2.938-2 6l-3 1c-.733 2.015-.733 2.015-1 4v-5h2l2-6z" fill="#100110"/><path d="M618 804c2.349 2.349 2.731 3.957 3.625 7.125l.789 2.758L623 816h-2l-1.5-3.75-.844-2.109C618 808 618 808 618 804z" fill="#9e4ccc"/><path d="M423 558c3 1 3 1 4.188 2.688 1.006 2.862.949 5.301.813 8.313-5-7.5-5-7.5-5-11z" fill="#a64fd2"/><path d="M359 401l3 1 1 9c-2.255-2.255-2.977-4.005-4-7v-3z" fill="#a34ece"/><path d="M955 380l1 4h2l-1 3-2-1-3 3 3-9z" fill="#a447cb"/><path d="M668 922c2.686 2.686 3.06 5.376 4 9l-2 2c-1.193-3.877-2-6.916-2-11z" fill="#9b44c6"/><path d="M632 833c2 1 2 1 3.188 3.813.777 3.047.913 4.325-.187 7.188-2.153-3.858-3.393-6.551-3-11z" fill="#1f042e"/><path d="M770 806h3l-1 6-2 1c-.934-3.01-1.044-3.867 0-7z" fill="#110419"/><path d="M497 726c1.245 2.491.777 3.411 0 6h2l-1 3-2-1-2-7 3-1z" fill="#ab49d9"/><path d="M747 675c1.601 4.002.293 7.046-1 11h-3c1.041-3.866 2.037-7.495 4-11z" fill="#2d0a3e"/><path d="M354 397l2 1v2l3 1 1 5h-2l-1-4h-2l-1-5z" fill="#170324"/><path d="M833 883h1v8l-4 1 3-9z" fill="#2a0937"/><path d="M509 764c2.686 2.686 3.06 5.376 4 9h-2v-2h-2v-7z" fill="#260739"/><path d="M906 710h1v8l-4 2 3-10z" fill="#270832"/><path d="M844 632l3 2-3 7h-1v-8l1-1z" fill="#110318"/><path d="M773 612h2l-1 7-3 1 2-8z" fill="#22062e"/><path d="M950 606h1v6h5v1h-8l2-7z" fill="#440d60"/><path d="M533 602c2.952 2.952 3.087 5.955 4 10l-3-1-1-9z" fill="#984cc3"/><path d="M541 600l4 2-1 3h-4l1-5z" fill="#020312"/><path d="M429 576h2l1 6h-4l1-6z" fill="#1c072b"/><path d="M418 547c2.686 2.686 3.06 5.376 4 9l-4-2v-7z" fill="#2b083e"/><path d="M906 494h1l-1 9h-3l3-9z" fill="#a24acc"/><path d="M932 433c1.467 3.815.433 6.29-1 10h-2c.61-3.558 1.578-6.683 3-10z" fill="#9247c0"/><path d="M370 430c2.952 2.952 3.087 5.955 4 10-2-1.625-2-1.625-4-4-.25-3.25-.25-3.25 0-6z" fill="#2a0a3c"/><path d="M707 958l2 1-3 9-2-3h2l1-7z" fill="#1e032a"/><path d="M579 928c3 1 3 1 4 3v6c-1.991-2.986-2.941-5.597-4-9z" fill="#a94dd7"/><path d="M757 647l2 1-3 8h-1v-7h2v-2z" fill="#a64fd4"/><path d="M877 557h2l-3 9h-1c-.25-5.625-.25-5.625 2-9z" fill="#1a021c"/><path d="M482 478c2.19 3.285 2.998 6.207 4 10-2-1.625-2-1.625-4-4-.25-3.25-.25-3.25 0-6z" fill="#9c48c6"/><path d="M917 464h2l-3 9-2-3 1-3h2v-3z" fill="#160221"/><path d="M479 462l2 1-1 7c-3-3.75-3-3.75-3-6h2v-2z" fill="#0f0116"/><path d="M943 408l3 3-1 3-2-1-1 3c-.125-5.75-.125-5.75 1-8z" fill="#ab4ae1"/></svg>